<svg width="1280" height="354" viewBox="0 0 1280 354" fill="none" xmlns="http://www.w3.org/2000/svg">
<path d="M799.742 0L471 354H1145L799.742 0Z" fill="#749DA1"/>
<path d="M800.077 0L734 354H1145L800.077 0Z" fill="#EB9191"/>
<path d="M0 354L360.231 167L689 354H0Z" fill="#76A6A1"/>
<path d="M312 354L360.01 167L689 354H312Z" fill="#F39A88"/>
<path d="M993.343 76L1268 354H736L993.343 76Z" fill="#7DAE9D"/>
<path d="M993.274 76L1268 354H961L993.274 76Z" fill="#F6A57F"/>
<path d="M551.399 193L744 354H336L551.399 193Z" fill="#8AB597"/>
<path d="M509 354L551.441 193L744 354H509Z" fill="#F6B178"/>
<path d="M1392 354L1148.93 143L909 354H1392Z" fill="#9DBA8F"/>
<path d="M1392 354L1149.28 143L1121 354H1392Z" fill="#F1BF75"/>
<path d="M999 354L811.249 186L618 354H999Z" fill="#B4BE89"/>
<path d="M789 354H999L811.022 186L789 354Z" fill="#E8CD75"/>
</svg>
