<svg width="1280" height="303" viewBox="0 0 1280 303" fill="none" xmlns="http://www.w3.org/2000/svg">
<path d="M799.742 106L471 303H1145L799.742 106Z" fill="#749DA1"/>
<path d="M800.077 106L734 303H1145L800.077 106Z" fill="#EB9191"/>
<path d="M0 303L360.231 116L689 303H0Z" fill="#76A6A1"/>
<path d="M312 303L360.01 116L689 303H312Z" fill="#F39A88"/>
<path d="M993.343 0L1268 303H736L993.343 0Z" fill="#7DAE9D"/>
<path d="M993.274 0L1268 303H961L993.274 0Z" fill="#F6A57F"/>
<path d="M551.399 142L744 303H336L551.399 142Z" fill="#8AB597"/>
<path d="M509 303L551.441 142L744 303H509Z" fill="#F6B178"/>
<path d="M1392 303L1148.93 126L909 303H1392Z" fill="#9DBA8F"/>
<path d="M1392 303L1149.28 126L1121 303H1392Z" fill="#F1BF75"/>
<path d="M999 303L811.249 182L618 303H999Z" fill="#B4BE89"/>
<path d="M789 303H999L811.022 182L789 303Z" fill="#E8CD75"/>
</svg>
