<svg width="108" height="108" viewBox="0 0 108 108" fill="none" xmlns="http://www.w3.org/2000/svg">
<path d="M48.8842 47.5769C49.9926 48.6001 51.9821 48.3727 52.6358 46.9801C53.2326 45.0759 50.3621 41.3811 49.7368 39.2211C46.2126 31.4906 42.6031 23.7885 38.88 16.1432C37.7431 13.5285 33.1673 14.978 34.3894 17.8201C39.42 27.6253 43.6263 37.9422 48.8842 47.5769ZM69.12 70.5127C67.1305 67.8127 63.1515 70.4843 65.2831 73.3264C68.1252 80.6306 70.4273 88.1053 73.1558 95.4664C74.0368 98.1664 78.7263 97.2285 77.7884 94.2727C73.0705 81.1422 70.7968 73.7243 69.12 70.5127ZM51.1863 66.4485C49.3673 67.4432 49.0263 70.0011 47.9179 71.6495C44.3084 78.8685 40.4715 85.9453 36.6631 93.0506C36.0663 94.159 36.5494 95.4664 37.6294 96.0632C38.6526 96.6317 40.2158 96.4895 40.8126 95.3527C47.0652 83.7285 50.561 76.7938 53.6305 70.3706C55.3073 68.4948 53.7158 65.6527 51.1863 66.4485ZM66.7326 46.5253C71.5073 35.5548 75.8842 27.7959 83.1031 14.2959C84.4958 11.7948 80.3747 9.60639 78.9821 11.9938C73.2979 22.8222 67.4147 33.5938 62.8673 44.9338C61.8726 47.2359 65.7947 48.8274 66.7326 46.5253ZM44.4221 55.3643C38.8515 54.1422 33.0536 54.2274 27.3694 53.7727C21.3158 53.4032 15.2336 53.0906 9.17997 52.5506C7.95786 52.4369 6.70733 53.2611 6.62207 54.5685C6.84944 58.5759 13.9831 56.9559 16.7968 57.638C25.5221 58.2632 34.3326 58.2348 43.0294 59.2864C45.8147 60.2527 47.1789 56.2738 44.4221 55.3643ZM98.9052 54.398C91.9137 54.6253 84.9221 54.8811 77.9589 55.3643C76.2536 55.6485 74.321 55.2222 72.7863 56.0748C71.621 56.9559 72.0189 58.7748 73.2694 59.3716C81.8526 59.8832 90.6631 58.718 99.3031 58.7464C102.401 58.6611 101.747 54.199 98.9052 54.398Z" fill="white"/>
</svg>
