<svg width="621" height="21" viewBox="0 0 621 21" fill="none" xmlns="http://www.w3.org/2000/svg">
<path d="M615.5 10.0752C593.855 6.8826 574.314 2.50625 549.212 0.820284C460.677 -3.7713 452.56 12.2992 398.447 14.7744C378.305 14.0928 367.482 9.0349 352.751 6.16517C329.903 0.569179 292.475 -1.58312 263.915 2.86497C237.61 6.45214 219.573 13.3395 189.059 15.1331C145.768 16.4962 122.62 0.999641 66.5529 3.5824C49.4171 3.36717 -22.7337 15.4201 7.17884 18.9355C18.1518 19.9399 22.5109 17.2854 28.3731 15.6712C35.2876 13.9493 42.8033 12.371 51.0706 11.0437C101.276 2.64974 132.841 21.6976 181.994 20.9802C257.753 20.6215 279.097 -7.25085 352.751 14.7026C436.326 35.0419 468.794 -4.48873 559.433 8.20985C573.412 10.2187 586.339 12.6221 600.018 14.7026C613.246 16.9267 629.78 12.4068 615.5 10.0752Z" fill="#749DA1"/>
</svg>
